<svg width="24" height="24" viewBox="0 0 24 24" fill="none" xmlns="http://www.w3.org/2000/svg">
<rect width="24" height="24" rx="3" fill="#F1C8C6"/>
<path d="M10.8832 10.8833C10.5859 11.179 10.4181 11.5806 10.4165 12C10.4165 12.4199 10.5833 12.8226 10.8803 13.1196C11.1772 13.4165 11.5799 13.5833 11.9998 13.5833C12.4192 13.5818 12.8208 13.4139 13.1165 13.1166" stroke="black" stroke-width="1.25" stroke-linecap="round" stroke-linejoin="round"/>
<path d="M12 7.25C11.0605 7.25 10.1422 7.52858 9.36104 8.05052C8.57991 8.57246 7.97109 9.3143 7.61157 10.1823C7.25206 11.0502 7.15799 12.0053 7.34127 12.9267C7.52455 13.8481 7.97695 14.6945 8.64124 15.3588C9.30554 16.0231 10.1519 16.4755 11.0733 16.6587C11.9947 16.842 12.9498 16.7479 13.8177 16.3884C14.6857 16.0289 15.4275 15.4201 15.9495 14.639C16.4714 13.8578 16.75 12.9395 16.75 12" stroke="black" stroke-width="1.25" stroke-linecap="round" stroke-linejoin="round"/>
<path d="M11.9999 4.08331C10.4342 4.08331 8.90355 4.54762 7.60166 5.41751C6.29977 6.28741 5.28507 7.52382 4.68588 8.9704C4.08668 10.417 3.92991 12.0088 4.23537 13.5444C4.54084 15.0801 5.29483 16.4907 6.40199 17.5979C7.50916 18.7051 8.91977 19.4591 10.4555 19.7645C11.9911 20.07 13.5829 19.9132 15.0295 19.314C16.4761 18.7148 17.7125 17.7001 18.5824 16.3982C19.4523 15.0964 19.9166 13.5657 19.9166 12M14.9374 9.06331L12.7916 11.2083" stroke="black" stroke-width="1.25" stroke-linecap="round" stroke-linejoin="round"/>
<path d="M19.4499 6.86998L16.7499 7.24998L17.1299 4.54998C17.1327 4.51862 17.1261 4.48714 17.1109 4.45956C17.0957 4.43198 17.0726 4.40956 17.0446 4.39516C17.0167 4.38076 16.985 4.37503 16.9537 4.37871C16.9225 4.38239 16.893 4.3953 16.8691 4.41581L15.0791 6.19664C14.8953 6.38183 14.76 6.60958 14.6854 6.85965C14.6109 7.10971 14.5992 7.37434 14.6516 7.62998L14.9366 9.06331L16.3699 9.34748C16.6256 9.39985 16.8902 9.38823 17.1403 9.31365C17.3903 9.23906 17.6181 9.10383 17.8033 8.91998L19.5833 7.13081C19.6038 7.10687 19.6168 7.07732 19.6205 7.04596C19.6241 7.0146 19.6183 6.98287 19.6038 6.95483C19.5893 6.92679 19.5667 6.90373 19.539 6.88861C19.5113 6.87349 19.4797 6.867 19.4483 6.86998" stroke="black" stroke-width="1.25" stroke-linecap="round" stroke-linejoin="round"/>
</svg>
